<svg xmlns="http://www.w3.org/2000/svg" viewBox="0 0 102.29 128.07"><defs><style>.cls-1{fill:#fff;}.cls-1,.cls-2{stroke:#fff;stroke-miterlimit:10;stroke-width:0.5px;}</style></defs><g id="Layer_2" data-name="Layer 2"><g id="Layer_1-2" data-name="Layer 1"><path class="cls-1" d="M36,109.29a.91.91,0,0,1,0,.25c-.5,3.21-1,6.41-1.49,9.62-.36,2.34-.74,4.68-1,7a1.3,1.3,0,0,0,1.15,1.62,1.39,1.39,0,0,0,1.55-1.27q1.05-6.78,2.09-13.56c.33-2.15.67-4.29,1-6.32,1.37.14,2.65.28,3.94.4a11.42,11.42,0,0,1,10.55,11.56c0,2.58,0,5.17,0,7.75a1.31,1.31,0,0,0,1.37,1.44,1.33,1.33,0,0,0,1.36-1.37c0-3.33.11-6.67-.17-10-.56-6.5-6.74-12.06-13.26-12.14a7.24,7.24,0,0,1-4-1.1,1.31,1.31,0,0,0-2.16,1,2.47,2.47,0,0,1-1.56,2.15A14.13,14.13,0,0,1,28.1,108a1.4,1.4,0,0,0-1.55,1.36A1.35,1.35,0,0,0,28,110.71a16,16,0,0,0,3.1-.16C32.74,110.22,34.34,109.72,36,109.29Z"/><path class="cls-2" d="M34.85,45.91a35.33,35.33,0,0,1,3.84,1c7.22,2.65,11.5,7.79,12.44,15.45a63.49,63.49,0,0,1,.17,8.62,18.53,18.53,0,0,0,2.91,10.11c4.21,6.94,4.13,14,0,20.92a3,3,0,0,1-.53.69,1.36,1.36,0,0,1-2.17-1.51,4.71,4.71,0,0,1,.35-.62c3.58-6,3.67-12,.07-18a21.07,21.07,0,0,1-3.21-8.5c-.1-.93-.12-1.87-.13-2.8,0-2.71,0-5.44-.11-8.15a15.51,15.51,0,0,0-11.87-14,18.79,18.79,0,0,0-4-.46c-3.17,0-6.35-.1-9.51.13a15.44,15.44,0,0,0-13.62,12,21.79,21.79,0,0,0-.42,4c-.07,2.19,0,4.38,0,6.56a19.12,19.12,0,0,1-3.22,11A16.1,16.1,0,0,0,3,91.66a16.44,16.44,0,0,0,6.78,13.23.86.86,0,0,0,.64.2c1.84-.73,3.81-.69,5.73-.93a5.58,5.58,0,0,0,4.71-5.51,1,1,0,0,0-.51-.66,18.27,18.27,0,0,1-8.59-9.53,16.21,16.21,0,0,1-1.25-6c0-3.33,0-6.67,0-10,0-1.09.51-1.67,1.4-1.65s1.33.6,1.33,1.63c0,3,0,6.08,0,9.12a15.59,15.59,0,0,0,13,15.49A15.43,15.43,0,0,0,44.12,83.54c.3-3.3.14-6.65.16-10A.7.7,0,0,0,44,73a13.47,13.47,0,0,1-6.32-5.71c-.84.52-1.64,1-2.46,1.52a36.86,36.86,0,0,1-13.56,4.71c-1.36.19-2.12-.22-2.23-1.16s.46-1.38,1.8-1.57A34.11,34.11,0,0,0,37.1,64.26a1.41,1.41,0,0,1,2.42.63,10.46,10.46,0,0,0,6.21,5.85c1.1.38,1.28.65,1.28,1.82,0,3.46.13,6.93,0,10.39A18.27,18.27,0,0,1,23.68,99.32c-.08.43-.14.84-.24,1.24a9,9,0,0,1-2.11,3.89,1.37,1.37,0,0,0-.36,1c.91,6,1.86,12,2.79,18.06.14.92.29,1.84.38,2.77A1.32,1.32,0,0,1,23,127.8a1.39,1.39,0,0,1-1.58-1.24L19,110.94c-.23-1.47-.46-2.93-.67-4.3-1.8.2-3.56.28-5.27.62a11.24,11.24,0,0,0-9.22,11.25c0,2.56,0,5.12,0,7.68a1.45,1.45,0,0,1-.9,1.54,1.33,1.33,0,0,1-1.82-1.13,101.71,101.71,0,0,1,.27-10.77,12.76,12.76,0,0,1,5.63-8.94l.25-.19s.06-.08,0-.06c-.8-.84-1.62-1.64-2.36-2.5a19.3,19.3,0,0,1-1.7-23,17.94,17.94,0,0,0,3-10.25,74.78,74.78,0,0,1,.14-8.47A18.21,18.21,0,0,1,19.84,46.55c.94-.26,1.9-.43,2.86-.64Z"/><path class="cls-2" d="M36,109.29c-1.62.43-3.22.93-4.85,1.26a16,16,0,0,1-3.1.16,1.35,1.35,0,0,1-1.46-1.36A1.4,1.4,0,0,1,28.1,108a14.13,14.13,0,0,0,7.15-1.63,2.47,2.47,0,0,0,1.56-2.15,1.31,1.31,0,0,1,2.16-1,7.24,7.24,0,0,0,4,1.1c6.52.08,12.7,5.64,13.26,12.14.28,3.31.15,6.65.17,10a1.33,1.33,0,0,1-1.36,1.37,1.31,1.31,0,0,1-1.37-1.44c0-2.58,0-5.17,0-7.75a11.42,11.42,0,0,0-10.55-11.56c-1.29-.12-2.57-.26-3.94-.4-.31,2-.65,4.17-1,6.32q-1.05,6.78-2.09,13.56a1.39,1.39,0,0,1-1.55,1.27,1.3,1.3,0,0,1-1.15-1.62c.31-2.34.69-4.68,1-7,.49-3.21,1-6.41,1.49-9.62A.91.91,0,0,0,36,109.29Z"/><path class="cls-2" d="M72.72,53.19A14.66,14.66,0,1,1,87.5,67.9,14.63,14.63,0,0,1,72.72,53.19ZM87.33,65.65A12.41,12.41,0,1,0,75,53.11,12.47,12.47,0,0,0,87.33,65.65Z"/><path class="cls-2" d="M47.94,28.44c.75,0,1.5,0,2.26,0a2.2,2.2,0,0,1,2.2,2.18c0,1.18,0,2.35,0,3.52a2.18,2.18,0,0,1-2.15,2.17c-1.57,0-3.15,0-4.72,0a2.2,2.2,0,0,1-2.14-2.18q0-1.72,0-3.45a2.2,2.2,0,0,1,2.22-2.24C46.39,28.43,47.16,28.44,47.94,28.44Zm-2.26,2.29V34h4.43V30.73Z"/><path class="cls-2" d="M61.4,36.33c-.73,0-1.46,0-2.19,0a2.21,2.21,0,0,1-2.28-2.25c0-1.13,0-2.26,0-3.39a2.2,2.2,0,0,1,2.28-2.25q2.22,0,4.44,0a2.22,2.22,0,0,1,2.29,2.26c0,1.12,0,2.25,0,3.38a2.21,2.21,0,0,1-2.29,2.25C62.9,36.34,62.15,36.33,61.4,36.33Zm2.24-2.28V30.73H59.22v3.32Z"/><path class="cls-2" d="M74.94,28.44c.78,0,1.55,0,2.33,0a2.2,2.2,0,0,1,2.2,2.19c0,1.17,0,2.34,0,3.52a2.18,2.18,0,0,1-2.15,2.16c-1.58,0-3.15,0-4.72,0a2.18,2.18,0,0,1-2.13-2.11c0-1.2,0-2.4,0-3.6a2.19,2.19,0,0,1,2.15-2.16C73.39,28.43,74.17,28.44,74.94,28.44Zm-2.19,2.28V34h4.43V30.72Z"/><path class="cls-2" d="M88.47,36.33c-.73,0-1.46,0-2.19,0A2.21,2.21,0,0,1,84,34.08q0-1.69,0-3.39a2.2,2.2,0,0,1,2.28-2.25q2.22,0,4.44,0A2.22,2.22,0,0,1,93,30.69q0,1.69,0,3.39a2.22,2.22,0,0,1-2.29,2.25C90,36.34,89.22,36.33,88.47,36.33ZM86.3,30.72V34h4.42V30.72Z"/><path class="cls-2" d="M47.88,46.48c-.75,0-1.5,0-2.26,0a2.22,2.22,0,0,1-2.23-2.24q0-1.73,0-3.45a2.19,2.19,0,0,1,2.2-2.19q2.32,0,4.65,0a2.18,2.18,0,0,1,2.16,2.16c0,1.19,0,2.39,0,3.59a2.2,2.2,0,0,1-2.12,2.12C49.48,46.5,48.68,46.48,47.88,46.48Zm2.25-5.59H45.67v3.3h4.46Z"/><path class="cls-2" d="M61.41,46.48c-.75,0-1.5,0-2.25,0a2.21,2.21,0,0,1-2.23-2.24q0-1.73,0-3.45a2.18,2.18,0,0,1,2.19-2.19c1.56,0,3.11,0,4.66,0a2.19,2.19,0,0,1,2.16,2.16c0,1.19,0,2.39,0,3.59a2.2,2.2,0,0,1-2.13,2.12C63,46.5,62.21,46.48,61.41,46.48Zm2.25-5.59H59.23v3.3h4.43Z"/><path class="cls-2" d="M61.46,48.74c.75,0,1.51,0,2.26,0A2.22,2.22,0,0,1,65.94,51c0,1.13,0,2.25,0,3.38a2.21,2.21,0,0,1-2.28,2.26H59.22a2.22,2.22,0,0,1-2.29-2.32c0-1.1,0-2.21,0-3.31a2.2,2.2,0,0,1,2.28-2.26C60,48.73,60.71,48.74,61.46,48.74Zm2.17,5.61V51H59.22v3.32Z"/><path class="cls-2" d="M72.73,40.84v3.33a3.73,3.73,0,0,1,.4.14,1.07,1.07,0,0,1,.68,1.31,1.08,1.08,0,0,1-1.14.86,2.22,2.22,0,0,1-2.2-2c0-1.26,0-2.53,0-3.8a2.16,2.16,0,0,1,2.06-2c1.57,0,3.15,0,4.72,0a1.12,1.12,0,0,1,0,2.23C75.76,40.85,74.28,40.84,72.73,40.84Z"/><path class="cls-2" d="M85.18,57.36c.42-.47.76-.89,1.14-1.27,2.38-2.4,4.78-4.79,7.17-7.18a6.2,6.2,0,0,1,.45-.44,1.09,1.09,0,0,1,1.53.06,1.07,1.07,0,0,1,.06,1.53c-.38.44-.81.84-1.23,1.26l-8.07,8.07c-.86.86-1.35.87-2.19,0l-4.29-4.28c-.64-.64-.71-1.27-.22-1.79s1.17-.48,1.83.18C82.59,54.75,83.82,56,85.18,57.36Z"/><path class="cls-2" d="M71.71,61.15c-.23,0-.47,0-.7,0H55.39V63.4H71.14a5.28,5.28,0,0,0,.56,0,1.13,1.13,0,0,0,0-2.24Z"/><path class="cls-2" d="M102,12.57A5.58,5.58,0,0,0,96.46,7h-5.7V4.73a4.51,4.51,0,0,0-9,0c0,.75,0,1.49,0,2.24h-9V4.74a4.51,4.51,0,0,0-9,0V7h-9c0-.79,0-1.54,0-2.29a4.51,4.51,0,0,0-9,0c0,.75,0,1.49,0,2.31H40.24a5.59,5.59,0,0,0-5.87,5.89V41.5h2.25V22.86H99.79v.9c0,6,0,12,0,18,0,.89.42,1.38,1.14,1.37s1.1-.49,1.1-1.35Q102,27.17,102,12.57ZM84,5A2.26,2.26,0,1,1,88.5,5q0,3.17,0,6.33a2.3,2.3,0,0,1-2.23,2.48A2.33,2.33,0,0,1,84,11.27c0-1,0-2.11,0-3.16S84,6,84,5ZM66,5A2.3,2.3,0,0,1,68.18,2.5,2.32,2.32,0,0,1,70.46,5c0,1.06,0,2.11,0,3.16s0,2.11,0,3.17a2.26,2.26,0,1,1-4.51,0C65.94,9.19,65.94,7.09,66,5Zm-18.05,0a2.26,2.26,0,1,1,4.51,0q0,3.17,0,6.33a2.27,2.27,0,1,1-4.51,0c0-1,0-2.11,0-3.16S47.89,6,47.9,4.94ZM99.78,20.29a1.31,1.31,0,0,1,0,.22H36.62V18.25c0-1.81,0-3.62,0-5.42a3.42,3.42,0,0,1,3.55-3.56c1.76,0,3.52,0,5.28,0a.83.83,0,0,1,.2.08c0,.72,0,1.46,0,2.21a4.51,4.51,0,0,0,9,0c0-.73,0-1.45,0-2.25h9v2.26a4.51,4.51,0,0,0,9,0c0-.73,0-1.46,0-2.24h9v2.14a4.51,4.51,0,1,0,9,0V9.3c2,0,4-.11,6,0a3.22,3.22,0,0,1,3,3.28C99.81,15.17,99.78,17.73,99.78,20.29Z"/></g></g></svg>