<svg xmlns="http://www.w3.org/2000/svg" width="118.06" height="118.078" viewBox="0 0 118.06 118.078">
  <g id="Group_330" data-name="Group 330" transform="translate(0 0)">
    <path id="Path_532" data-name="Path 532" d="M58.385,100.562a2.932,2.932,0,0,1,3.134-1.63c.986.083,1.983.016,3.093.016,0-.494.007-.9,0-1.31-.075-3.688-.169-7.376-.222-11.065-.028-1.993.812-2.645,2.759-2.891a76.8,76.8,0,0,0,7.658-1.444c1.877-.435,3.381.609,3.2,2.422A2.154,2.154,0,0,1,76.281,86.6c-2.07.551-4.164,1.017-6.249,1.511-.293.07-.6.1-.873.147V98.83a10.111,10.111,0,0,0,1.007.114c3.882.006,7.765-.01,11.647.019a1.237,1.237,0,0,0,1.3-.8,37.69,37.69,0,0,1,38.049-21.042c13.858,1.488,24.106,8.491,30.523,20.932a1.4,1.4,0,0,0,1.468.919c3.766-.043,7.534-.018,11.3-.022.338,0,.675-.031,1.2-.057V88.379c-14.341-2.35-22.773-10.764-25.244-25.327H94.494c-.582,2.318-1.14,4.581-1.724,6.837a5.926,5.926,0,0,1-.506,1.282,2.227,2.227,0,0,1-2.836,1.09,2.184,2.184,0,0,1-1.363-2.8,27.445,27.445,0,0,0,1.723-9,2.2,2.2,0,0,1,2.1-2.081,10.287,10.287,0,0,1,1.037-.017h49.009c2.45,0,3.124.666,3.184,3.137A23.1,23.1,0,0,0,165.28,83.52c.877.1,1.759.159,2.641.2a2.335,2.335,0,0,1,2.55,2.6c-.05,3.919-.151,7.838-.23,11.756,0,.23,0,.459,0,.868a22.593,22.593,0,0,0,2.623-.015c3.264-.387,4.418,1.809,2.831,4.512-2.018,3.437-3.681,7.081-5.558,10.6a1.974,1.974,0,0,0,.02,2.115c1.963,3.694,3.864,7.421,5.778,11.141,1.205,2.341.229,3.926-2.414,3.929-2.727,0-5.455,0-8.275,0-.419,1.235-.818,2.464-1.25,3.681-5.067,14.282-13.627,25.777-26.815,33.578a77.139,77.139,0,0,1-18.438,7.684,5.435,5.435,0,0,0-.618.257H116.74c-1.926-.624-3.861-1.22-5.776-1.876-17.574-6.025-30.512-17.2-37.992-34.364-1.267-2.908-2.3-5.917-3.474-8.959-2.609,0-5.3-.059-7.981.024a3.052,3.052,0,0,1-3.132-1.639v-1.384c2.194-4.2,4.4-8.4,6.562-12.619a1.325,1.325,0,0,0,0-1.052c-2.166-4.217-4.368-8.416-6.562-12.619Zm25.479,16.92a32.061,32.061,0,0,0,3.35,12.379c.725-.412,1.311-.781,1.929-1.088a2.293,2.293,0,0,1,2.3,3.969c-.6.4-1.238.746-1.918,1.151a33.026,33.026,0,0,0,9.089,9.065c1.977-2.943,2.871-3.53,4.233-2.684.452.281,1.063.882,1.021,1.274a32.16,32.16,0,0,1-.883,3.93,32.051,32.051,0,0,0,12.146,3.168c0-.752-.019-1.4,0-2.046a2.3,2.3,0,1,1,4.6-.015c.026.676,0,1.353,0,2.075A32.253,32.253,0,0,0,132.2,145.3c-.423-.746-.793-1.332-1.1-1.951A2.294,2.294,0,0,1,135.1,141.1c.394.6.74,1.229,1.143,1.9a33.2,33.2,0,0,0,9.066-9.1c-2.968-1.956-3.546-2.848-2.674-4.24.284-.453.884-1.075,1.27-1.03a32.039,32.039,0,0,1,3.918.919,31.865,31.865,0,0,0,3.163-12.159c-.766,0-1.415.022-2.062,0a2.3,2.3,0,1,1,.034-4.6c.668-.023,1.338,0,2.047,0a32.794,32.794,0,0,0-3.337-12.466c-.669.376-1.225.707-1.8,1.006a2.3,2.3,0,1,1-2.3-3.98c.569-.355,1.152-.688,1.77-1.054a33.409,33.409,0,0,0-9.11-9.1c-.4.677-.75,1.318-1.152,1.92A2.293,2.293,0,0,1,131.12,86.8c.319-.64.694-1.253,1.04-1.871a29.715,29.715,0,0,0-12.425-3.334c0,.68.024,1.362-.005,2.041a2.283,2.283,0,0,1-2.289,2.385c-1.31.007-2.306-2.365-2.306-2.365s-.006-1.364-.006-2.136a32.434,32.434,0,0,0-12.463,3.355c.415.742.8,1.36,1.117,2.014a2.288,2.288,0,0,1-3.989,2.238c-.4-.6-.751-1.246-1.163-1.936a33.145,33.145,0,0,0-9.1,9.109c.667.395,1.275.724,1.851,1.1a2.3,2.3,0,1,1-2.28,3.992c-.635-.321-1.243-.694-1.915-1.073a32.578,32.578,0,0,0-3.313,12.4c1.851.216,4.239-.528,4.456,2.391C88.448,116.694,87.532,117.139,83.864,117.482Zm76.707,13.752c-2.719,0-5.1.029-7.479-.018a1.3,1.3,0,0,0-1.38.871,38.1,38.1,0,0,1-44.75,19.738,37.081,37.081,0,0,1-23.8-19.62c-.2-.4-.686-.917-1.053-.929-2.492-.082-4.988-.043-7.535-.043a4.077,4.077,0,0,0,.092.511A60.779,60.779,0,0,0,88.1,154.977c7.168,7.574,15.975,12.441,25.778,15.732a10.6,10.6,0,0,0,7.1.01c15.832-5.213,28.054-14.665,35.458-29.831C157.948,137.8,159.153,134.573,160.571,131.234Zm-6.592-27.64a39.132,39.132,0,0,1,.007,22.978H170.3c-.194-.422-.335-.764-.5-1.092-1.424-2.762-2.782-5.561-4.306-8.267a3.938,3.938,0,0,1,.028-4.293c1.541-2.74,2.916-5.574,4.355-8.371.148-.288.261-.595.417-.955Zm-73.106.035H64.564c.224.472.39.848.579,1.213,1.477,2.863,2.926,5.742,4.455,8.578a3.216,3.216,0,0,1-.013,3.361c-1.285,2.357-2.481,4.762-3.712,7.149-.433.84-.861,1.684-1.346,2.634H80.868A39.1,39.1,0,0,1,80.873,103.629Z" transform="translate(-58.385 -58.356)" fill="#005cb9"/>
    <path id="Path_533" data-name="Path 533" d="M137.891,121.723a2.243,2.243,0,0,1-2.292-2.246,2.274,2.274,0,0,1,2.364-2.3,2.242,2.242,0,0,1,2.219,2.315A2.22,2.22,0,0,1,137.891,121.723Z" transform="translate(-111.812 -99.055)" fill="#04a6e1"/>
    <path id="Path_534" data-name="Path 534" d="M236.841,173.022c0,2.383.015,4.765-.01,7.147a1.093,1.093,0,0,0,.722,1.228,5.989,5.989,0,0,1,3.128,3.092,1.252,1.252,0,0,0,1.411.808c3.267-.028,6.534-.039,9.8,0a2.292,2.292,0,0,1,2.166,3.423,2.422,2.422,0,0,1-2.338,1.18c-3.19-.01-6.38.012-9.57-.015a1.368,1.368,0,0,0-1.5.856,6.872,6.872,0,0,1-12.943-2.238,6.668,6.668,0,0,1,3.7-7.045,1.3,1.3,0,0,0,.834-1.395q-.045-7.147-.009-14.295c.009-2.053,1.746-3.226,3.4-2.328a2.386,2.386,0,0,1,1.208,2.32C236.836,168.181,236.841,170.6,236.841,173.022Zm-2.26,16.865a2.326,2.326,0,0,0,2.25-2.289,2.3,2.3,0,1,0-4.592.094A2.327,2.327,0,0,0,234.581,189.888Z" transform="translate(-175.488 -130.856)" fill="#04a6e1"/>
  </g>
</svg>
