<svg xmlns="http://www.w3.org/2000/svg" viewBox="0 0 119.34 119.36"><defs><style>.cls-1{stroke:#fff;stroke-miterlimit:10;}</style></defs><g id="Layer_2" data-name="Layer 2"><g id="Layer_1-2" data-name="Layer 1"><path class="cls-1" d="M63.81.5c2.08.3,4.18.55,6.25.92A57.71,57.71,0,0,1,99.78,16.21,58.25,58.25,0,0,1,118,49.86a56.74,56.74,0,0,1,.17,18.39c-.22,1.44-1,2.15-2.06,2s-1.61-1.12-1.41-2.5a53.9,53.9,0,0,0-7.42-36.77c-8.75-14.28-21.44-23.23-38-26-19.87-3.35-36.9,2.61-50.7,17.23a52.26,52.26,0,0,0-14.18,31c-2,18.7,4,34.59,17.63,47.46a52.25,52.25,0,0,0,29.4,14c19.27,2.59,35.69-3.24,49.11-17.29a53.22,53.22,0,0,0,12-20.41c.13-.4.25-.81.4-1.21a1.74,1.74,0,0,1,2.23-1.27,1.67,1.67,0,0,1,1.06,2.32c-1.5,3.73-2.76,7.62-4.7,11.12-8.31,15-20.76,25-37.43,29-20.49,5-38.83.26-54.53-13.84-10-9-16-20.42-18.32-33.71C1,67.54.75,65.67.5,63.81V55.49c.25-1.86.44-3.73.77-5.58A58.42,58.42,0,0,1,19.71,16,57.48,57.48,0,0,1,49.35,1.41c2-.35,4.09-.61,6.14-.91Z"/><path class="cls-1" d="M107.22,59.76c-.16,20.29-12,37.6-31,44.56-16.18,5.91-31.45,3.45-45.42-6.71-1.39-1-1.42-2-.19-3.25L94.37,30.58c1.24-1.24,2.21-1.18,3.25.2A46.81,46.81,0,0,1,107,54.23a17.06,17.06,0,0,1,.19,1.72C107.24,57.22,107.22,58.49,107.22,59.76ZM92.42,69c0,1.64,0,3.13,0,4.62s-.66,2.21-1.79,2.2-1.72-.75-1.71-2.24c0-1.76,0-3.53,0-5.42l-9.84-2.26c-.74,1.64-1.45,3.21-2.17,4.78s-1.49,1.91-2.55,1.44-1.29-1.42-.66-2.84l1.89-4.2-6.36-1.43c-.13,1.46-.25,2.75-.37,4s-.87,2-2,1.94-1.61-.87-1.52-2.17c.06-1,.15-2,.22-2.76L34.42,95.9a44.06,44.06,0,0,0,58-6.64c15.71-17.43,13.59-41.48,3.38-54.8L70.06,60.24c2.1.48,4.29,1,6.49,1.46.24,0,.71-.35.86-.64.73-1.48,1.36-3,2.09-4.49a1.7,1.7,0,0,1,2.77-.63,1.8,1.8,0,0,1,.31,2.23c-.66,1.46-1.31,2.91-2,4.5l8.68,2c0-1.7,0-3.16,0-4.62s.63-2.22,1.76-2.22,1.75.75,1.72,2.33,0,3-.09,4.5a.85.85,0,0,0,.79,1c1,.2,2,.41,2.92.69a1.66,1.66,0,0,1,1.28,2,1.74,1.74,0,0,1-2.2,1.31C94.5,69.47,93.57,69.26,92.42,69Z"/><path class="cls-1" d="M23.45,85,49.32,59.07c-2.19-.5-4.42-1-6.66-1.48-.21-.05-.63.33-.77.61-.67,1.38-1.27,2.8-1.91,4.19s-1.54,1.74-2.54,1.25-1.21-1.43-.65-2.69,1.25-2.78,1.94-4.31l-6.61-1.52c-.23,1.71-.45,3.3-.66,4.88-.17,1.22-.93,2-1.91,1.88S27.9,61,28,59.72c.16-1.76.4-3.51.63-5.39-1.69-.39-3.37-.76-5-1.18a3.72,3.72,0,0,1-1.45-.64,1.51,1.51,0,0,1-.33-2,1.65,1.65,0,0,1,1.93-.91c1.75.38,3.51.79,5.33,1.2.18-1.46.36-2.83.54-4.19a8.81,8.81,0,0,1,.15-1,1.67,1.67,0,0,1,2.09-1.45,1.77,1.77,0,0,1,1.35,2.09c-.17,1.41-.35,2.82-.57,4.23-.13.79,0,1.24.93,1.42,2.19.4,4.34,1,6.62,1.51q1-2.25,2.06-4.48a7.66,7.66,0,0,1,.5-1,1.73,1.73,0,0,1,3.1,1.49c-.65,1.57-1.37,3.09-2.13,4.81l6.13,1.43c0-.93,0-1.76,0-2.58s-.15-1.46-.11-2.18a1.72,1.72,0,0,1,3.43-.09c.14,1.37.21,2.74.3,3.9L84.79,23.31c-.44-.29-1.14-.8-1.87-1.25a42.11,42.11,0,0,0-27.69-6.32C36.88,18,24.53,28,17.84,45.19c-.21.55-.5,1.26-.95,1.48a2.44,2.44,0,0,1-1.91,0,1.51,1.51,0,0,1-.57-2.12c1.49-3.28,2.73-6.72,4.62-9.76C26.62,22.51,37.62,15,51.82,12.61c13.3-2.22,25.49.84,36.4,8.84,1.75,1.28,1.81,2.17.28,3.71L25.11,88.54C23.62,90,22.74,90,21.48,88.26A47.52,47.52,0,0,1,12.1,55.52a25,25,0,0,1,.36-2.74,1.74,1.74,0,0,1,2-1.6,1.91,1.91,0,0,1,1.45,2.17c-.17,2.84-.42,5.68-.39,8.52A42.94,42.94,0,0,0,23.45,85Z"/></g></g></svg>